<svg width="76" height="52" viewBox="0 0 76 52" fill="none" xmlns="http://www.w3.org/2000/svg">
<path d="M74.8468 25.0286L63.4435 13.2128C62.9939 12.7461 62.3569 12.4803 61.6897 12.4803H48.2077V2.91525C48.2077 1.67203 47.1441 0.664429 45.8318 0.664429H2.5337C1.22141 0.664429 0.157837 1.67235 0.157837 2.91525C0.157837 4.15814 1.22141 5.16607 2.5337 5.16607H43.4556V41.0084H22.9645C21.9382 37.7423 18.742 35.3535 14.9661 35.3535C11.1901 35.3535 7.99328 37.7423 6.96798 41.0084H2.5337C1.22141 41.0084 0.157837 42.0161 0.157837 43.2589C0.157837 44.5025 1.22141 45.5098 2.5337 45.5098H6.96798C7.99328 48.7753 11.1901 51.1644 14.9661 51.1644C18.742 51.1644 21.9382 48.7753 22.9645 45.5098H45.8315H51.4635C52.4898 48.7753 55.6867 51.1644 59.4619 51.1644C63.2385 51.1644 66.4347 48.7753 67.4607 45.5098H73.0931C74.4053 45.5098 75.4689 44.5022 75.4689 43.2589V26.5473C75.4696 25.9858 75.247 25.4437 74.8468 25.0286ZM14.9661 46.6634C12.9849 46.6634 11.3731 45.1364 11.3731 43.2593C11.3731 41.3824 12.9849 39.8551 14.9661 39.8551C16.9472 39.8551 18.559 41.3827 18.559 43.2593C18.5594 45.1364 16.9472 46.6634 14.9661 46.6634ZM59.4623 46.6634C57.4811 46.6634 55.8693 45.1364 55.8693 43.2593C55.8693 41.3824 57.4815 39.8551 59.4623 39.8551C61.4441 39.8551 63.0559 41.3827 63.0559 43.2593C63.0562 45.1364 61.4441 46.6634 59.4623 46.6634ZM67.4613 41.0088C66.4354 37.7426 63.2392 35.3538 59.4626 35.3538C55.687 35.3538 52.4905 37.7426 51.4642 41.0088H48.208V16.9822H60.6434L67.7023 24.2968H54.2443C52.9327 24.2968 51.8691 25.3047 51.8691 26.5476C51.8691 27.7911 52.9327 28.7984 54.2443 28.7984H70.7179V41.0084H67.4613V41.0088Z" fill="#111111"/>
</svg>
